<svg id="iExec_logo" xmlns="http://www.w3.org/2000/svg" xmlns:xlink="http://www.w3.org/1999/xlink" viewBox="0 0 700 300"><defs><style>.cls-1{fill:#010101;}.cls-2{fill:url(#linear-gradient);}.cls-3{fill:url(#linear-gradient-2);}.cls-4{fill:url(#linear-gradient-3);}</style><linearGradient id="linear-gradient" x1="111.37" y1="250.1" x2="201.86" y2="159.62" gradientUnits="userSpaceOnUse"><stop offset="0" stop-color="#f9c300"/><stop offset="1" stop-color="#f2e900"/></linearGradient><linearGradient id="linear-gradient-2" x1="76.18" y1="214.91" x2="166.67" y2="124.42" xlink:href="#linear-gradient"/><linearGradient id="linear-gradient-3" x1="40.71" y1="179.44" x2="131.2" y2="88.95" xlink:href="#linear-gradient"/></defs><title>iExec-logo-horizontal-black</title><path class="cls-1" d="M333.8,107.19A10.69,10.69,0,1,0,337.08,122,10.68,10.68,0,0,0,333.8,107.19Z"/><path class="cls-1" d="M354.42,180v6.49A4.43,4.43,0,0,1,350,191H306.88a2.48,2.48,0,0,1-2.48-2.48V178.09a2.48,2.48,0,0,1,2.48-2.48h14.57V152H306.76a2.48,2.48,0,0,1-2.48-2.48V139.19a2.48,2.48,0,0,1,2.48-2.48h25.71c2.9,0,5.25,2.64,5.25,5.9v33H350A4.43,4.43,0,0,1,354.42,180Z"/><path class="cls-1" d="M531.55,167.55H499.47c.75,6.33,5,10.58,11.64,10.58a15.37,15.37,0,0,0,11.27-4.32,3.21,3.21,0,0,1,4.51-.08l5.3,5.12a2.28,2.28,0,0,1,.09,3.19q-8.12,8.78-20.75,8.77c-8.15,0-14.7-2.43-19.78-7.29s-7.51-11.32-7.51-19.46q0-11.9,7-19.67c4.65-5.18,10.79-7.83,18.51-7.83,8.14,0,14.28,2.65,18.51,7.83a28.2,28.2,0,0,1,6.45,18.72l0,1.43A3.1,3.1,0,0,1,531.55,167.55Zm-31.79-8.78H518.9c0-5.92-3.17-10.26-9.2-10.26-6.23,0-9.41,4.23-9.94,10.26"/><path class="cls-1" d="M593.9,178.31a2.38,2.38,0,0,1,.16,3.25c-5.27,6.15-12.33,9.25-21.35,9.25-8.14,0-14.7-2.53-19.77-7.51s-7.62-11.5-7.62-19.55,2.54-14.7,7.62-19.67,11.63-7.51,19.77-7.51c9,0,14.59,2.9,20.08,8.6a2.38,2.38,0,0,1-.06,3.36l-6,5.78a3.28,3.28,0,0,1-4.64-.1,12.22,12.22,0,0,0-8.89-4c-7.61,0-12.58,5.4-12.58,13.54s5,13.54,12.58,13.54a13.2,13.2,0,0,0,10-4.67,3.27,3.27,0,0,1,4.63-.14s0,0,0,.05Z"/><path class="cls-1" d="M476.88,189.43a2.66,2.66,0,0,1-2.35,1.38H464.47a3.29,3.29,0,0,1-2.79-1.54l-7.93-13.73-8.2,13.94a2.84,2.84,0,0,1-2.4,1.33h-10a2.8,2.8,0,0,1-2.48-1.46,2.77,2.77,0,0,1,.08-2.87L445.33,163l-13.58-21.87a2.83,2.83,0,0,1,2.41-4.32h10a2.78,2.78,0,0,1,2.4,1.34l7.12,11.47,7-11.26a3.25,3.25,0,0,1,2.78-1.55h10.06a2.69,2.69,0,0,1,2.28,4.1L462,163l14.77,23.73A2.65,2.65,0,0,1,476.88,189.43Z"/><path class="cls-1" d="M383.27,120.83v16H407.6a4.35,4.35,0,0,1,4.35,4.35v6.06a4.35,4.35,0,0,1-4.35,4.35H383.27v24h32.06a4.35,4.35,0,0,1,4.35,4.35v6.52a4.35,4.35,0,0,1-4.35,4.35h-46.1a4.35,4.35,0,0,1-4.35-4.35V110a4.35,4.35,0,0,1,4.35-4.35h46.1a4.35,4.35,0,0,1,4.35,4.35v6.46a4.35,4.35,0,0,1-4.35,4.35Z"/><path class="cls-2" d="M129.21,236a23.88,23.88,0,0,1-2.77-47.58,25.72,25.72,0,0,1,2.77-.16,23.79,23.79,0,0,1,12.72,3.68,8.61,8.61,0,0,0,4.58,1.31,9.44,9.44,0,0,0,4.8-1.34,9.09,9.09,0,0,0,4.45-8.3,23.89,23.89,0,0,1,21.17-25.43,25.94,25.94,0,0,1,2.64-.14,23.77,23.77,0,0,1,12.69,3.68,8.67,8.67,0,0,0,4.62,1.32,9.4,9.4,0,0,0,4.78-1.34l.1-.06a9.07,9.07,0,0,0,4.34-8.23,23.9,23.9,0,0,1,21.5-25.46c.77-.07,1.54-.11,2.31-.11a23.88,23.88,0,0,1,2.77,47.58,23.27,23.27,0,0,1-2.77.16h0a23.72,23.72,0,0,1-12.71-3.67,8.58,8.58,0,0,0-4.59-1.31,9.34,9.34,0,0,0-4.8,1.34,9.09,9.09,0,0,0-4.44,8.3,23.65,23.65,0,0,1-21.17,25.41,26.18,26.18,0,0,1-2.66.15,23.81,23.81,0,0,1-12.7-3.68,8.62,8.62,0,0,0-4.6-1.31,9.19,9.19,0,0,0-4.79,1.34l-.11.06a9,9,0,0,0-4.33,8.23,24.36,24.36,0,0,1,0,3.82,23.82,23.82,0,0,1-21.44,21.63C130.76,236,130,236,129.21,236Z"/><path class="cls-3" d="M129.21,175.57A23.88,23.88,0,0,1,126.47,128a25.72,25.72,0,0,1,2.77-.16A23.79,23.79,0,0,1,142,131.53a8.61,8.61,0,0,0,4.58,1.31,9.41,9.41,0,0,0,4.8-1.34,9.09,9.09,0,0,0,4.45-8.3,23.88,23.88,0,0,1,21.49-25.45,22.52,22.52,0,0,1,2.32-.11,23.88,23.88,0,0,1,2.77,47.58,25.57,25.57,0,0,1-2.77.15,23.69,23.69,0,0,1-12.72-3.67,8.53,8.53,0,0,0-4.58-1.31,9.34,9.34,0,0,0-4.8,1.34,9.08,9.08,0,0,0-4.44,8.3,24.22,24.22,0,0,1,0,3.81,23.82,23.82,0,0,1-21.43,21.64c-.78.07-1.57.11-2.34.11h0Z"/><path class="cls-4" d="M146.11,105.5l-1-4.9h.07A3.29,3.29,0,0,0,147,96.31v0l3.76-2.5a3,3,0,0,0,.55.46l-4.74,11.33a3,3,0,0,0-.43,0m.12-17.9L150,90.12a3.34,3.34,0,0,0,0,2.54v0l-3.76,2.5a3.29,3.29,0,0,0-4.37-.28l-2-1.79a3.2,3.2,0,0,0,0-3.42l2-1.77a3.31,3.31,0,0,0,4.36-.32m-9.65-8.19a3.45,3.45,0,0,0,.54-.28l4.07,4.25a3.3,3.3,0,0,0-.38,3.14l0,0a2.38,2.38,0,0,0,.23.45l-2,1.78a3.26,3.26,0,0,0-3.84-.11l-3.4-3.39a3.27,3.27,0,0,0-.13-3.88l1.92-2.2a3.3,3.3,0,0,0,2.94.21m10.33,7.16a3.3,3.3,0,0,0-1.76-4.32l-.08,0,1-5.1a3.26,3.26,0,0,0,.62-.06l4.61,11.56a3.14,3.14,0,0,0-.57.45v0Zm-33.46-9.1c.4-.15,1.61-.81,1.8-1.76l4.52.85a3.23,3.23,0,0,0,.54,1.89l-4.06,4.06a3.31,3.31,0,0,0-1.9-.57Zm24.54.79a3.32,3.32,0,0,0,.61-2.07l4.44-1a3.48,3.48,0,0,0,.67,1,3.41,3.41,0,0,0,1.13.74l-1,5.1a3.3,3.3,0,0,0-1.27.25,3.14,3.14,0,0,0-.54.29Zm-7.7-7.9,2.65,3.71a3.28,3.28,0,0,0-.22,4.29l-1.92,2.2a3.22,3.22,0,0,0-3.38,0l-1.73-1.93a3.29,3.29,0,0,0-.37-4.39l2.54-3.81a2.15,2.15,0,0,0,1,.21,3.23,3.23,0,0,0,1.4-.28m-14.81,4.12a3.14,3.14,0,0,0,0-.61l10.74-4.65a3.54,3.54,0,0,0,.62.66l-2.5,3.75A3.31,3.31,0,0,0,120,75.42Zm15.8-4.83a3.51,3.51,0,0,0,.42-.59l0,0,11.1,4.18a3.35,3.35,0,0,0,0,.71l-4.44,1A3.29,3.29,0,0,0,134,73.31l-.12,0ZM128.83,64a3.29,3.29,0,0,0-3.18,2.7,3.23,3.23,0,0,0,0,1.35L115,72.69a2.72,2.72,0,0,0-.46-.61,3.3,3.3,0,0,0-4.67,4.66,2.54,2.54,0,0,0,.34.23,23.54,23.54,0,0,0-4.69,11.86c-.08.81-.13,1.63-.13,2.45a23.92,23.92,0,0,0,23.92,23.9,22.16,22.16,0,0,0,2.44-.13,23.27,23.27,0,0,0,12.22-5,2.26,2.26,0,0,0,.13.2,2.83,2.83,0,0,0,4-4,2.72,2.72,0,0,0-.38-.31l4.72-11.39a3.3,3.3,0,0,0,1.43-6.44,3.53,3.53,0,0,0-.79-.08,3.08,3.08,0,0,0-.61.06l-4.64-11.57a3.3,3.3,0,1,0-3.46-5.62,3.25,3.25,0,0,0-1.11,1.13L132.13,67.9A3.28,3.28,0,0,0,128.94,64Z"/></svg>
