<svg id="iExec_logo" xmlns="http://www.w3.org/2000/svg" xmlns:xlink="http://www.w3.org/1999/xlink" viewBox="0 0 500 500"><defs><style>.cls-1{fill:#f5f5f5;}.cls-2{fill:url(#linear-gradient);}.cls-3{fill:url(#linear-gradient-2);}.cls-4{fill:url(#linear-gradient-3);}</style><linearGradient id="linear-gradient" x1="180.52" y1="285" x2="281.64" y2="183.88" gradientUnits="userSpaceOnUse"><stop offset="0" stop-color="#f9c300"/><stop offset="1" stop-color="#f2e900"/></linearGradient><linearGradient id="linear-gradient-2" x1="143.73" y1="248.21" x2="244.85" y2="147.09" xlink:href="#linear-gradient"/><linearGradient id="linear-gradient-3" x1="106.65" y1="211.13" x2="207.77" y2="110.01" xlink:href="#linear-gradient"/></defs><title>iExec-logo-vertical-white</title><path class="cls-1" d="M129.1,323.42a11.18,11.18,0,1,0,3.43,15.43A11.18,11.18,0,0,0,129.1,323.42Z"/><path class="cls-1" d="M150.66,399.58v6.79A4.63,4.63,0,0,1,146,411H101a2.59,2.59,0,0,1-2.6-2.59V397.54A2.59,2.59,0,0,1,101,395h15.23V370.28H100.83a2.6,2.6,0,0,1-2.59-2.6v-10.8a2.59,2.59,0,0,1,2.59-2.59h26.88c3,0,5.49,2.76,5.49,6.16V395H146A4.63,4.63,0,0,1,150.66,399.58Z"/><path class="cls-1" d="M335.82,386.52H302.29c.78,6.62,5.2,11.06,12.16,11.06a16,16,0,0,0,11.78-4.51A3.36,3.36,0,0,1,331,393l5.55,5.35a2.38,2.38,0,0,1,.09,3.33q-8.49,9.18-21.7,9.17c-8.51,0-15.36-2.54-20.67-7.63s-7.86-11.83-7.86-20.34q0-12.44,7.3-20.56c4.87-5.41,11.28-8.18,19.35-8.18,8.51,0,14.93,2.77,19.35,8.18s6.74,11.94,6.74,19.57l0,1.5A3.24,3.24,0,0,1,335.82,386.52Zm-33.23-9.17h20c0-6.19-3.32-10.73-9.62-10.73-6.52,0-9.84,4.43-10.39,10.73"/><path class="cls-1" d="M401,397.78a2.49,2.49,0,0,1,.16,3.39c-5.51,6.42-12.89,9.67-22.31,9.67-8.52,0-15.37-2.65-20.68-7.85s-8-12-8-20.44,2.65-15.37,8-20.56,12.16-7.85,20.68-7.85c9.36,0,15.25,3,21,9a2.48,2.48,0,0,1-.06,3.51l-6.23,6a3.44,3.44,0,0,1-4.85-.1,12.77,12.77,0,0,0-9.29-4.21c-8,0-13.16,5.64-13.16,14.15s5.2,14.15,13.16,14.15a13.77,13.77,0,0,0,10.45-4.88,3.43,3.43,0,0,1,4.84-.14l.05.05Z"/><path class="cls-1" d="M278.67,409.4a2.77,2.77,0,0,1-2.46,1.43H265.7a3.4,3.4,0,0,1-2.91-1.6l-8.3-14.35-8.57,14.57a2.94,2.94,0,0,1-2.51,1.38h-10.5a2.94,2.94,0,0,1-2.51-4.51l15.29-24.58-14.2-22.85a3,3,0,0,1,2.52-4.52h10.5a2.92,2.92,0,0,1,2.51,1.4l7.44,12L261.77,356a3.4,3.4,0,0,1,2.91-1.62h10.51a2.81,2.81,0,0,1,2.38,4.29l-14.41,23.08,15.44,24.82A2.78,2.78,0,0,1,278.67,409.4Z"/><path class="cls-1" d="M180.81,337.68v16.69h25.43a4.55,4.55,0,0,1,4.55,4.55v6.33a4.55,4.55,0,0,1-4.55,4.55H180.81v25.13h33.51a4.55,4.55,0,0,1,4.55,4.55v6.81a4.55,4.55,0,0,1-4.55,4.55H166.13a4.55,4.55,0,0,1-4.54-4.55V326.38a4.54,4.54,0,0,1,4.54-4.54h48.19a4.55,4.55,0,0,1,4.55,4.54v6.76a4.55,4.55,0,0,1-4.55,4.54Z"/><path class="cls-2" d="M200.63,268.79a25,25,0,0,1-2.9-49.74,25.5,25.5,0,0,1,2.9-.17,24.78,24.78,0,0,1,13.29,3.84,9,9,0,0,0,4.8,1.37,9.71,9.71,0,0,0,5-1.4,9.48,9.48,0,0,0,4.65-8.68,24.93,24.93,0,0,1,38.16-22.88,9,9,0,0,0,4.82,1.38,9.67,9.67,0,0,0,5-1.4l.11-.06a9.51,9.51,0,0,0,4.54-8.61,25,25,0,0,1,22.47-26.6c.8-.08,1.62-.12,2.42-.12a25,25,0,0,1,2.9,49.74,25.5,25.5,0,0,1-2.9.17h0a24.87,24.87,0,0,1-13.29-3.84,9,9,0,0,0-4.8-1.37,9.71,9.71,0,0,0-5,1.4,9.46,9.46,0,0,0-4.64,8.68,25.91,25.91,0,0,1,0,3.94A25,25,0,0,1,256,237.06a25.71,25.71,0,0,1-2.77.15A24.86,24.86,0,0,1,240,233.37a8.91,8.91,0,0,0-4.82-1.37,9.69,9.69,0,0,0-5,1.39l-.11.07a9.48,9.48,0,0,0-4.54,8.61,24.16,24.16,0,0,1,0,4,24.88,24.88,0,0,1-22.41,22.61Q201.85,268.79,200.63,268.79Z"/><path class="cls-3" d="M200.63,205.63a25,25,0,0,1-2.87-49.72,25.64,25.64,0,0,1,2.9-.17A24.87,24.87,0,0,1,214,159.58a9,9,0,0,0,4.8,1.37,9.71,9.71,0,0,0,5-1.4,9.47,9.47,0,0,0,4.65-8.67,25,25,0,0,1,22.47-26.61c.81-.08,1.62-.12,2.42-.12a25,25,0,0,1,2.9,49.74,25.5,25.5,0,0,1-2.9.17A24.92,24.92,0,0,1,240,170.22a8.92,8.92,0,0,0-4.79-1.37,9.77,9.77,0,0,0-5,1.4,9.48,9.48,0,0,0-4.64,8.67,24.16,24.16,0,0,1,0,4,24.92,24.92,0,0,1-22.41,22.62c-.81.07-1.64.12-2.44.12h0Z"/><path class="cls-4" d="M218.29,132.38l-1-5.13h.07a3.45,3.45,0,0,0,1.87-4.48v0l3.93-2.61a2.85,2.85,0,0,0,.57.47l-4.95,11.84a3.42,3.42,0,0,0-.46,0m.13-18.72,4,2.63a3.5,3.5,0,0,0,0,2.66v0l-3.93,2.62a3.42,3.42,0,0,0-4.56-.29l-2.08-1.88a3.4,3.4,0,0,0,0-3.58l2.05-1.85a3.44,3.44,0,0,0,4.56-.33m-10.09-8.56a3.1,3.1,0,0,0,.57-.3l4.26,4.45a3.43,3.43,0,0,0-.4,3.29v0a4.16,4.16,0,0,0,.24.47l-2,1.85a3.42,3.42,0,0,0-4-.11l-3.55-3.55a3.39,3.39,0,0,0-.14-4l2-2.3a3.44,3.44,0,0,0,1.75.48,3.34,3.34,0,0,0,1.32-.26m10.81,7.48a3.46,3.46,0,0,0-1.84-4.51l-.09,0,1-5.33a3.57,3.57,0,0,0,.65-.06l4.82,12.09a3,3,0,0,0-.6.47l0,0Zm-35-9.5c.42-.17,1.69-.86,1.89-1.85l4.72.9a3.33,3.33,0,0,0,.57,2l-4.25,4.25a3.44,3.44,0,0,0-2-.59Zm25.65.82a3.49,3.49,0,0,0,.65-2.16l4.64-1.1a3.3,3.3,0,0,0,.7,1,3.4,3.4,0,0,0,1.18.77l-1,5.33a3.54,3.54,0,0,0-1.33.26,3.81,3.81,0,0,0-.56.31Zm-8-8.26,2.76,3.88a3.43,3.43,0,0,0-.22,4.48l-2,2.3a3.35,3.35,0,0,0-3.53,0l-1.81-2a3.47,3.47,0,0,0-.38-4.6l2.64-4a2.28,2.28,0,0,0,1.09.22,3.36,3.36,0,0,0,1.46-.29M186.28,100a4.48,4.48,0,0,0-.05-.64l11.23-4.86a3.5,3.5,0,0,0,.64.69l-2.61,3.92a3.44,3.44,0,0,0-4.48,1.87Zm16.51-5.06a3,3,0,0,0,.44-.61l0,0,11.6,4.37a3.64,3.64,0,0,0,0,.74l-4.65,1.1a3.44,3.44,0,0,0-4.48-1.79l-.12.06ZM200.23,89a3.45,3.45,0,0,0-3.33,2.82,3.52,3.52,0,0,0,0,1.41l-11.18,4.85a3.39,3.39,0,0,0-.49-.64,3.45,3.45,0,1,0-4.88,4.87,2,2,0,0,0,.36.23A24.77,24.77,0,0,0,175.84,115c-.08.85-.13,1.7-.13,2.56a25,25,0,0,0,25,25A24.66,24.66,0,0,0,216,137.17c.05.06.08.15.14.21a3,3,0,0,0,4.18-4.18,2.6,2.6,0,0,0-.4-.33l4.94-11.9a3.45,3.45,0,0,0,1.5-6.73,3.3,3.3,0,0,0-.83-.09,4.48,4.48,0,0,0-.64.07l-4.85-12.09a3.45,3.45,0,1,0-3.62-5.88,3.36,3.36,0,0,0-1.16,1.18l-11.61-4.36a3.43,3.43,0,0,0-2.77-4,2.74,2.74,0,0,0-.56-.06Z"/></svg>
